<svg id="svg" version="1.1" xmlns="http://www.w3.org/2000/svg" xmlns:xlink="http://www.w3.org/1999/xlink" width="400" height="400" viewBox="0, 0, 400,400"><g id="svgg"><path id="path0" d="M84.585 98.900 C 84.481 99.175,84.441 144.850,84.498 200.400 L 84.600 301.400 186.300 301.501 L 288.000 301.602 288.000 245.305 L 288.000 189.008 287.086 190.004 C 286.584 190.552,284.929 192.530,283.409 194.400 C 281.889 196.270,280.545 197.890,280.422 198.000 C 280.299 198.110,278.849 199.820,277.200 201.800 C 275.551 203.780,274.111 205.490,274.001 205.600 C 273.890 205.710,273.117 206.651,272.281 207.690 C 271.446 208.730,270.546 209.814,270.281 210.100 C 269.834 210.582,267.368 213.611,265.996 215.361 C 265.483 216.016,265.372 220.516,265.200 247.561 L 265.000 279.000 186.200 279.000 L 107.400 279.000 107.400 200.000 L 107.400 121.000 180.053 120.899 L 252.705 120.798 254.171 119.009 C 254.978 118.025,255.855 116.990,256.120 116.710 C 256.386 116.429,257.413 115.212,258.402 114.004 C 259.391 112.796,260.587 111.356,261.060 110.804 C 264.209 107.129,270.787 98.948,270.793 98.700 C 270.806 98.136,84.799 98.336,84.585 98.900 M286.800 107.284 C 283.875 110.918,279.958 115.693,278.661 117.204 C 278.188 117.756,276.992 119.196,276.005 120.404 C 275.019 121.612,274.116 122.690,274.000 122.800 C 273.884 122.910,272.981 123.987,271.995 125.194 C 271.008 126.400,269.900 127.750,269.534 128.194 C 269.168 128.637,267.756 130.350,266.396 132.000 C 265.036 133.650,263.535 135.452,263.061 136.004 C 262.588 136.556,261.392 137.996,260.405 139.204 C 259.419 140.412,258.516 141.490,258.400 141.600 C 258.284 141.710,257.384 142.790,256.400 144.000 C 255.416 145.210,254.514 146.290,254.396 146.400 C 254.277 146.510,252.572 148.580,250.606 151.000 C 248.641 153.420,246.933 155.490,246.811 155.600 C 246.689 155.710,245.784 156.790,244.800 158.000 C 243.816 159.210,242.916 160.290,242.800 160.400 C 242.684 160.510,241.782 161.590,240.796 162.800 C 239.810 164.010,238.823 165.204,238.602 165.453 C 238.381 165.702,237.570 166.683,236.800 167.632 C 235.316 169.463,229.286 176.717,227.850 178.400 C 225.940 180.639,213.252 195.982,211.200 198.534 C 210.870 198.944,210.150 199.775,209.600 200.381 C 209.050 200.986,208.150 202.072,207.600 202.794 C 207.050 203.516,206.187 204.578,205.683 205.153 C 205.179 205.729,203.382 207.872,201.691 209.916 C 199.680 212.346,198.380 213.592,197.935 213.516 C 197.560 213.452,192.246 208.468,186.127 202.441 C 180.007 196.413,172.570 189.123,169.600 186.241 C 166.630 183.358,159.281 176.160,153.270 170.245 L 142.339 159.489 130.870 170.942 L 119.400 182.394 159.915 222.897 L 200.430 263.400 201.915 261.790 C 203.775 259.774,206.399 256.813,209.033 253.758 C 213.463 248.621,224.989 235.388,225.198 235.200 C 225.321 235.090,226.406 233.840,227.610 232.421 C 228.815 231.003,230.315 229.293,230.945 228.621 C 231.575 227.950,233.814 225.240,235.921 222.600 C 238.028 219.960,239.860 217.710,239.991 217.600 C 240.182 217.439,243.400 213.503,245.876 210.400 C 249.696 205.614,257.480 195.965,258.139 195.200 C 258.612 194.650,259.625 193.390,260.390 192.400 C 261.154 191.410,261.884 190.510,262.011 190.400 C 262.138 190.290,263.682 188.400,265.442 186.200 C 267.202 184.000,272.491 177.430,277.196 171.600 C 281.901 165.770,287.199 159.200,288.969 157.000 C 292.485 152.630,293.033 151.959,294.145 150.666 C 294.555 150.190,295.364 149.170,295.943 148.400 C 296.522 147.630,297.096 146.910,297.219 146.800 C 297.342 146.690,298.881 144.800,300.639 142.600 C 304.852 137.328,310.919 129.852,311.190 129.600 C 311.308 129.490,311.878 128.770,312.457 128.000 C 313.036 127.230,313.890 126.167,314.355 125.639 C 315.453 124.389,315.310 124.143,312.001 121.589 C 311.012 120.825,309.932 119.981,309.601 119.713 C 300.875 112.638,289.922 104.006,289.697 104.026 C 289.534 104.041,288.230 105.507,286.800 107.284 " stroke="none" fill="#fafbfb" fill-rule="evenodd"></path><path id="path1" d="M178.900 0.273 C 176.639 0.359,174.800 0.601,174.800 0.814 C 174.800 1.026,173.540 1.200,172.000 1.200 C 170.400 1.200,169.200 1.371,169.200 1.600 C 169.200 1.820,168.221 2.000,167.024 2.000 C 165.827 2.000,164.736 2.180,164.600 2.400 C 164.464 2.620,163.373 2.800,162.176 2.800 C 160.979 2.800,160.000 2.980,160.000 3.200 C 160.000 3.420,159.280 3.600,158.400 3.600 C 157.520 3.600,156.800 3.780,156.800 4.000 C 156.800 4.220,156.091 4.400,155.224 4.400 C 154.357 4.400,153.536 4.580,153.400 4.800 C 153.264 5.020,152.353 5.200,151.376 5.200 C 150.399 5.200,149.600 5.380,149.600 5.600 C 149.600 5.820,149.060 6.000,148.400 6.000 C 147.740 6.000,147.200 6.180,147.200 6.400 C 147.200 6.620,146.570 6.800,145.800 6.800 C 145.030 6.800,144.400 6.980,144.400 7.200 C 144.400 7.420,143.871 7.600,143.224 7.600 C 142.577 7.600,141.936 7.780,141.800 8.000 C 141.664 8.220,141.055 8.400,140.448 8.400 C 139.372 8.400,136.007 9.332,134.800 9.964 C 134.470 10.136,133.255 10.519,132.100 10.815 C 130.945 11.110,130.000 11.497,130.000 11.676 C 130.000 11.854,129.550 12.000,129.000 12.000 C 128.450 12.000,128.000 12.147,128.000 12.328 C 128.000 12.508,127.100 12.900,126.000 13.200 C 124.900 13.500,124.000 13.892,124.000 14.072 C 124.000 14.253,123.550 14.400,123.000 14.400 C 122.450 14.400,122.000 14.580,122.000 14.800 C 122.000 15.020,121.651 15.200,121.224 15.200 C 120.797 15.200,120.336 15.380,120.200 15.600 C 120.064 15.820,119.603 16.000,119.176 16.000 C 118.749 16.000,118.400 16.180,118.400 16.400 C 118.400 16.620,118.040 16.800,117.600 16.800 C 117.160 16.800,116.800 16.980,116.800 17.200 C 116.800 17.420,116.547 17.600,116.238 17.600 C 115.594 17.600,112.586 19.011,109.333 20.838 C 108.586 21.257,107.794 21.600,107.571 21.600 C 107.349 21.600,106.780 21.960,106.308 22.400 C 105.836 22.840,105.213 23.200,104.925 23.200 C 104.636 23.200,104.400 23.380,104.400 23.600 C 104.400 23.820,104.040 24.000,103.600 24.000 C 103.160 24.000,102.800 24.180,102.800 24.400 C 102.800 24.620,102.476 24.800,102.080 24.800 C 101.684 24.800,101.189 24.958,100.980 25.151 C 100.771 25.343,99.790 25.948,98.800 26.494 C 94.465 28.885,91.965 30.434,91.200 31.201 C 91.090 31.311,90.505 31.656,89.900 31.968 C 89.295 32.280,88.800 32.685,88.800 32.868 C 88.800 33.050,88.480 33.200,88.088 33.200 C 87.697 33.200,87.117 33.560,86.800 34.000 C 86.483 34.440,85.975 34.800,85.672 34.800 C 85.369 34.800,84.644 35.295,84.060 35.900 C 83.477 36.505,82.505 37.255,81.900 37.568 C 81.295 37.880,80.800 38.285,80.800 38.468 C 80.800 38.650,80.622 38.800,80.405 38.800 C 79.984 38.800,78.893 39.626,77.368 41.100 C 76.856 41.595,76.293 42.003,76.118 42.006 C 75.943 42.010,74.994 42.719,74.009 43.582 C 73.023 44.445,72.148 45.081,72.063 44.996 C 71.977 44.911,71.040 45.732,69.980 46.821 C 68.920 47.909,67.860 48.800,67.626 48.800 C 67.392 48.800,67.200 48.980,67.200 49.200 C 67.200 49.420,67.028 49.600,66.817 49.600 C 66.606 49.600,64.671 51.392,62.517 53.581 C 57.761 58.416,58.416 57.761,53.581 62.517 C 51.392 64.671,49.600 66.606,49.600 66.817 C 49.600 67.028,49.420 67.200,49.200 67.200 C 48.980 67.200,48.800 67.392,48.800 67.626 C 48.800 67.860,47.909 68.920,46.821 69.980 C 45.732 71.040,44.911 71.977,44.996 72.063 C 45.081 72.148,44.445 73.023,43.582 74.009 C 42.719 74.994,42.010 75.943,42.006 76.118 C 42.003 76.293,41.595 76.856,41.100 77.368 C 39.626 78.893,38.800 79.984,38.800 80.405 C 38.800 80.622,38.650 80.800,38.468 80.800 C 38.285 80.800,37.880 81.295,37.568 81.900 C 37.255 82.505,36.505 83.477,35.900 84.060 C 35.295 84.644,34.800 85.369,34.800 85.672 C 34.800 85.975,34.440 86.483,34.000 86.800 C 33.560 87.117,33.200 87.697,33.200 88.088 C 33.200 88.480,33.050 88.800,32.868 88.800 C 32.685 88.800,32.280 89.295,31.968 89.900 C 31.656 90.505,31.311 91.090,31.201 91.200 C 30.434 91.965,28.885 94.465,26.494 98.800 C 25.948 99.790,25.343 100.771,25.151 100.980 C 24.958 101.189,24.800 101.684,24.800 102.080 C 24.800 102.476,24.620 102.800,24.400 102.800 C 24.180 102.800,24.000 103.160,24.000 103.600 C 24.000 104.040,23.820 104.400,23.600 104.400 C 23.380 104.400,23.200 104.636,23.200 104.925 C 23.200 105.213,22.840 105.836,22.400 106.308 C 21.960 106.780,21.600 107.349,21.600 107.571 C 21.600 107.794,21.257 108.586,20.838 109.333 C 19.011 112.586,17.600 115.594,17.600 116.238 C 17.600 116.547,17.420 116.800,17.200 116.800 C 16.980 116.800,16.800 117.160,16.800 117.600 C 16.800 118.040,16.620 118.400,16.400 118.400 C 16.180 118.400,16.000 118.749,16.000 119.176 C 16.000 119.603,15.820 120.064,15.600 120.200 C 15.380 120.336,15.200 120.797,15.200 121.224 C 15.200 121.651,15.020 122.000,14.800 122.000 C 14.580 122.000,14.400 122.450,14.400 123.000 C 14.400 123.550,14.253 124.000,14.072 124.000 C 13.892 124.000,13.500 124.900,13.200 126.000 C 12.900 127.100,12.508 128.000,12.328 128.000 C 12.147 128.000,12.000 128.450,12.000 129.000 C 12.000 129.550,11.854 130.000,11.676 130.000 C 11.497 130.000,11.110 130.945,10.815 132.100 C 10.519 133.255,10.136 134.470,9.964 134.800 C 9.332 136.007,8.400 139.372,8.400 140.448 C 8.400 141.055,8.220 141.664,8.000 141.800 C 7.780 141.936,7.600 142.577,7.600 143.224 C 7.600 143.871,7.420 144.400,7.200 144.400 C 6.980 144.400,6.800 145.030,6.800 145.800 C 6.800 146.570,6.620 147.200,6.400 147.200 C 6.180 147.200,6.000 147.740,6.000 148.400 C 6.000 149.060,5.820 149.600,5.600 149.600 C 5.380 149.600,5.200 150.399,5.200 151.376 C 5.200 152.353,5.020 153.264,4.800 153.400 C 4.580 153.536,4.400 154.357,4.400 155.224 C 4.400 156.091,4.220 156.800,4.000 156.800 C 3.780 156.800,3.600 157.520,3.600 158.400 C 3.600 159.280,3.420 160.000,3.200 160.000 C 2.980 160.000,2.800 160.979,2.800 162.176 C 2.800 163.373,2.620 164.464,2.400 164.600 C 2.180 164.736,2.000 165.827,2.000 167.024 C 2.000 168.221,1.820 169.200,1.600 169.200 C 1.372 169.200,1.200 170.389,1.200 171.967 C 1.200 173.824,1.036 174.788,0.700 174.900 C -0.032 175.144,-0.032 224.856,0.700 225.100 C 1.036 225.212,1.200 226.176,1.200 228.033 C 1.200 229.611,1.372 230.800,1.600 230.800 C 1.820 230.800,2.000 231.779,2.000 232.976 C 2.000 234.173,2.180 235.264,2.400 235.400 C 2.620 235.536,2.800 236.526,2.800 237.600 C 2.800 238.674,2.980 239.664,3.200 239.800 C 3.420 239.936,3.600 240.757,3.600 241.624 C 3.600 242.491,3.780 243.200,4.000 243.200 C 4.220 243.200,4.400 243.909,4.400 244.776 C 4.400 245.643,4.580 246.464,4.800 246.600 C 5.020 246.736,5.200 247.546,5.200 248.400 C 5.200 249.254,5.380 250.064,5.600 250.200 C 5.820 250.336,6.000 250.977,6.000 251.624 C 6.000 252.271,6.180 252.800,6.400 252.800 C 6.620 252.800,6.800 253.419,6.800 254.176 C 6.800 254.933,6.980 255.664,7.200 255.800 C 7.420 255.936,7.600 256.577,7.600 257.224 C 7.600 257.871,7.780 258.400,8.000 258.400 C 8.220 258.400,8.403 258.895,8.406 259.500 C 8.412 260.676,9.653 264.987,10.120 265.453 C 10.274 265.607,10.400 266.143,10.400 266.643 C 10.400 267.143,10.580 267.664,10.800 267.800 C 11.020 267.936,11.200 268.487,11.200 269.024 C 11.200 269.561,11.380 270.000,11.600 270.000 C 11.820 270.000,12.000 270.279,12.000 270.619 C 12.000 270.960,12.360 271.984,12.800 272.894 C 13.240 273.805,13.600 274.876,13.600 275.275 C 13.600 275.674,13.780 276.000,14.000 276.000 C 14.220 276.000,14.400 276.450,14.400 277.000 C 14.400 277.550,14.580 278.000,14.800 278.000 C 15.020 278.000,15.200 278.349,15.200 278.776 C 15.200 279.203,15.380 279.664,15.600 279.800 C 15.820 279.936,16.000 280.397,16.000 280.824 C 16.000 281.251,16.180 281.600,16.400 281.600 C 16.620 281.600,16.800 281.960,16.800 282.400 C 16.800 282.840,16.980 283.200,17.200 283.200 C 17.420 283.200,17.600 283.549,17.600 283.976 C 17.600 284.403,17.780 284.864,18.000 285.000 C 18.220 285.136,18.400 285.597,18.400 286.024 C 18.400 286.451,18.580 286.800,18.800 286.800 C 19.020 286.800,19.200 287.160,19.200 287.600 C 19.200 288.040,19.380 288.400,19.600 288.400 C 19.820 288.400,20.000 288.760,20.000 289.200 C 20.000 289.640,20.180 290.000,20.400 290.000 C 20.620 290.000,20.800 290.345,20.800 290.767 C 20.800 291.188,20.935 291.593,21.100 291.667 C 21.476 291.834,22.775 293.964,23.071 294.900 C 23.193 295.285,23.452 295.600,23.647 295.600 C 23.841 295.600,24.000 295.960,24.000 296.400 C 24.000 296.840,24.180 297.200,24.400 297.200 C 24.620 297.200,24.800 297.474,24.800 297.808 C 24.800 298.142,25.250 299.129,25.800 300.000 C 26.350 300.871,26.800 301.697,26.800 301.834 C 26.800 301.972,27.295 302.830,27.900 303.742 C 28.505 304.654,29.254 305.892,29.564 306.493 C 29.874 307.095,30.414 307.905,30.764 308.293 C 31.114 308.682,31.655 309.495,31.968 310.100 C 32.280 310.705,32.685 311.200,32.868 311.200 C 33.050 311.200,33.200 311.520,33.200 311.912 C 33.200 312.303,33.560 312.883,34.000 313.200 C 34.440 313.517,34.800 314.025,34.800 314.328 C 34.800 314.631,35.340 315.383,36.000 316.000 C 36.660 316.617,37.200 317.369,37.200 317.672 C 37.200 317.975,37.560 318.483,38.000 318.800 C 38.440 319.117,38.800 319.585,38.800 319.840 C 38.800 320.095,39.520 321.045,40.400 321.952 C 41.280 322.859,42.000 323.704,42.000 323.829 C 42.000 323.954,42.225 324.299,42.500 324.594 C 43.418 325.579,44.857 327.555,44.747 327.678 C 44.687 327.745,45.575 328.736,46.719 329.881 C 47.864 331.025,48.800 332.150,48.800 332.381 C 48.800 332.611,48.980 332.800,49.200 332.800 C 49.420 332.800,49.600 332.986,49.600 333.214 C 49.600 333.442,51.445 335.427,53.700 337.627 C 58.628 342.434,57.566 341.372,62.373 346.300 C 64.573 348.555,66.540 350.400,66.746 350.400 C 66.951 350.400,67.995 351.257,69.065 352.305 C 70.135 353.353,71.638 354.650,72.405 355.186 C 73.172 355.723,73.890 356.270,74.000 356.402 C 74.110 356.534,74.916 357.173,75.792 357.821 C 77.755 359.275,78.732 360.051,79.416 360.700 C 79.706 360.975,80.096 361.200,80.283 361.200 C 80.470 361.200,80.883 361.560,81.200 362.000 C 81.517 362.440,82.025 362.800,82.328 362.800 C 82.631 362.800,83.383 363.340,84.000 364.000 C 84.617 364.660,85.369 365.200,85.672 365.200 C 85.975 365.200,86.483 365.560,86.800 366.000 C 87.117 366.440,87.697 366.800,88.088 366.800 C 88.480 366.800,88.800 366.950,88.800 367.132 C 88.800 367.315,89.295 367.720,89.900 368.032 C 90.505 368.344,91.090 368.689,91.200 368.799 C 91.737 369.338,94.009 370.800,94.308 370.800 C 94.496 370.800,94.998 371.121,95.425 371.513 C 95.851 371.905,96.830 372.530,97.600 372.901 C 98.370 373.272,99.540 373.939,100.200 374.385 C 100.860 374.830,101.715 375.196,102.100 375.197 C 102.485 375.199,102.800 375.380,102.800 375.600 C 102.800 375.820,103.145 376.000,103.567 376.000 C 103.988 376.000,104.393 376.135,104.467 376.300 C 104.634 376.676,106.764 377.975,107.700 378.271 C 108.085 378.393,108.400 378.652,108.400 378.847 C 108.400 379.041,108.760 379.200,109.200 379.200 C 109.640 379.200,110.001 379.335,110.003 379.500 C 110.007 379.859,111.944 380.800,112.680 380.800 C 112.966 380.800,113.200 380.980,113.200 381.200 C 113.200 381.420,113.549 381.600,113.976 381.600 C 114.403 381.600,114.864 381.780,115.000 382.000 C 115.136 382.220,115.597 382.400,116.024 382.400 C 116.451 382.400,116.800 382.580,116.800 382.800 C 116.800 383.020,117.160 383.200,117.600 383.200 C 118.040 383.200,118.400 383.380,118.400 383.600 C 118.400 383.820,118.672 384.000,119.005 384.000 C 119.338 384.000,120.013 384.208,120.505 384.462 C 122.382 385.433,122.807 385.600,123.395 385.600 C 123.728 385.600,124.000 385.780,124.000 386.000 C 124.000 386.220,124.439 386.400,124.976 386.400 C 125.513 386.400,126.064 386.580,126.200 386.800 C 126.336 387.020,126.797 387.200,127.224 387.200 C 127.651 387.200,128.000 387.380,128.000 387.600 C 128.000 387.820,128.362 388.000,128.805 388.000 C 129.248 388.000,129.968 388.180,130.405 388.400 C 130.842 388.620,131.558 388.980,131.995 389.200 C 132.432 389.420,133.064 389.600,133.400 389.600 C 133.736 389.600,134.323 389.774,134.705 389.987 C 135.951 390.682,139.200 391.600,140.414 391.600 C 141.066 391.600,141.600 391.780,141.600 392.000 C 141.600 392.220,142.230 392.400,143.000 392.400 C 143.770 392.400,144.400 392.580,144.400 392.800 C 144.400 393.020,145.030 393.200,145.800 393.200 C 146.570 393.200,147.200 393.380,147.200 393.600 C 147.200 393.820,147.729 394.000,148.376 394.000 C 149.023 394.000,149.664 394.180,149.800 394.400 C 149.936 394.620,150.746 394.800,151.600 394.800 C 152.454 394.800,153.264 394.980,153.400 395.200 C 153.536 395.420,154.357 395.600,155.224 395.600 C 156.091 395.600,156.800 395.780,156.800 396.000 C 156.800 396.220,157.509 396.400,158.376 396.400 C 159.243 396.400,160.064 396.580,160.200 396.800 C 160.336 397.020,161.326 397.200,162.400 397.200 C 163.474 397.200,164.464 397.380,164.600 397.600 C 164.736 397.820,165.827 398.000,167.024 398.000 C 168.221 398.000,169.200 398.180,169.200 398.400 C 169.200 398.629,170.400 398.800,172.000 398.800 C 173.600 398.800,174.800 398.971,174.800 399.200 C 174.800 399.434,176.144 399.600,178.033 399.600 C 180.002 399.600,181.214 399.444,181.133 399.202 C 181.060 398.983,159.175 376.976,132.499 350.297 L 83.998 301.791 84.099 199.795 L 84.200 97.800 177.795 97.699 L 271.389 97.598 277.632 103.832 L 283.876 110.066 286.572 106.833 C 289.623 103.176,289.713 103.142,291.845 104.836 C 292.700 105.515,294.012 106.550,294.759 107.136 C 296.049 108.146,298.442 110.078,300.208 111.534 C 300.652 111.900,301.672 112.692,302.473 113.294 C 303.275 113.896,304.171 114.618,304.465 114.900 C 304.759 115.181,305.810 116.034,306.800 116.795 C 307.790 117.557,308.690 118.278,308.800 118.399 C 308.910 118.520,310.170 119.547,311.600 120.681 C 313.030 121.815,333.368 141.926,356.796 165.372 C 380.223 188.817,399.555 208.000,399.755 208.000 C 400.312 208.000,399.805 175.068,399.245 174.882 C 398.975 174.792,398.800 173.644,398.800 171.967 C 398.800 170.389,398.628 169.200,398.400 169.200 C 398.180 169.200,398.000 168.221,398.000 167.024 C 398.000 165.827,397.820 164.736,397.600 164.600 C 397.380 164.464,397.200 163.474,397.200 162.400 C 397.200 161.326,397.020 160.336,396.800 160.200 C 396.580 160.064,396.400 159.243,396.400 158.376 C 396.400 157.509,396.220 156.800,396.000 156.800 C 395.780 156.800,395.600 156.091,395.600 155.224 C 395.600 154.357,395.420 153.536,395.200 153.400 C 394.980 153.264,394.800 152.454,394.800 151.600 C 394.800 150.746,394.620 149.936,394.400 149.800 C 394.180 149.664,394.000 149.023,394.000 148.376 C 394.000 147.729,393.820 147.200,393.600 147.200 C 393.380 147.200,393.200 146.570,393.200 145.800 C 393.200 145.030,393.020 144.400,392.800 144.400 C 392.580 144.400,392.400 143.770,392.400 143.000 C 392.400 142.230,392.220 141.600,392.000 141.600 C 391.780 141.600,391.600 141.066,391.600 140.414 C 391.600 139.200,390.682 135.951,389.987 134.705 C 389.774 134.323,389.600 133.736,389.600 133.400 C 389.600 133.064,389.420 132.432,389.200 131.995 C 388.980 131.558,388.620 130.842,388.400 130.405 C 388.180 129.968,388.000 129.248,388.000 128.805 C 388.000 128.362,387.820 128.000,387.600 128.000 C 387.380 128.000,387.200 127.651,387.200 127.224 C 387.200 126.797,387.020 126.336,386.800 126.200 C 386.580 126.064,386.400 125.513,386.400 124.976 C 386.400 124.439,386.220 124.000,386.000 124.000 C 385.780 124.000,385.600 123.728,385.600 123.395 C 385.600 123.062,385.420 122.432,385.200 121.995 C 384.980 121.558,384.620 120.842,384.400 120.405 C 384.180 119.968,384.000 119.338,384.000 119.005 C 384.000 118.672,383.820 118.400,383.600 118.400 C 383.380 118.400,383.200 118.040,383.200 117.600 C 383.200 117.160,383.020 116.800,382.800 116.800 C 382.580 116.800,382.400 116.451,382.400 116.024 C 382.400 115.597,382.220 115.136,382.000 115.000 C 381.780 114.864,381.600 114.403,381.600 113.976 C 381.600 113.549,381.420 113.200,381.200 113.200 C 380.980 113.200,380.800 112.966,380.800 112.680 C 380.800 111.944,379.859 110.007,379.500 110.003 C 379.335 110.001,379.200 109.655,379.200 109.233 C 379.200 108.812,379.065 108.407,378.900 108.333 C 378.524 108.166,377.225 106.036,376.929 105.100 C 376.807 104.715,376.548 104.400,376.353 104.400 C 376.159 104.400,376.000 104.040,376.000 103.600 C 376.000 103.160,375.820 102.800,375.600 102.800 C 375.380 102.800,375.199 102.485,375.197 102.100 C 375.196 101.715,374.830 100.860,374.385 100.200 C 373.939 99.540,373.272 98.370,372.901 97.600 C 372.530 96.830,371.905 95.851,371.513 95.425 C 371.121 94.998,370.800 94.496,370.800 94.308 C 370.800 94.009,369.338 91.737,368.799 91.200 C 368.689 91.090,368.344 90.505,368.032 89.900 C 367.720 89.295,367.315 88.800,367.132 88.800 C 366.950 88.800,366.800 88.480,366.800 88.088 C 366.800 87.697,366.440 87.117,366.000 86.800 C 365.560 86.483,365.200 85.975,365.200 85.672 C 365.200 85.369,364.660 84.617,364.000 84.000 C 363.340 83.383,362.800 82.631,362.800 82.328 C 362.800 82.025,362.440 81.517,362.000 81.200 C 361.560 80.883,361.200 80.485,361.200 80.316 C 361.200 80.042,360.597 79.218,359.400 77.855 C 359.180 77.605,358.470 76.680,357.821 75.800 C 357.173 74.920,356.534 74.110,356.402 74.000 C 356.270 73.890,355.723 73.172,355.186 72.405 C 354.650 71.638,353.353 70.135,352.305 69.065 C 351.257 67.995,350.400 66.951,350.400 66.746 C 350.400 66.540,348.555 64.573,346.300 62.373 C 341.372 57.566,342.434 58.628,337.627 53.700 C 335.427 51.445,333.442 49.600,333.214 49.600 C 332.986 49.600,332.800 49.420,332.800 49.200 C 332.800 48.980,332.611 48.800,332.381 48.800 C 332.150 48.800,331.066 47.904,329.971 46.810 C 328.877 45.715,327.926 44.860,327.860 44.910 C 327.735 45.003,325.551 43.391,324.594 42.500 C 324.299 42.225,323.954 42.000,323.829 42.000 C 323.704 42.000,322.859 41.280,321.952 40.400 C 321.045 39.520,320.095 38.800,319.840 38.800 C 319.585 38.800,319.117 38.440,318.800 38.000 C 318.483 37.560,317.975 37.200,317.672 37.200 C 317.369 37.200,316.617 36.660,316.000 36.000 C 315.383 35.340,314.631 34.800,314.328 34.800 C 314.025 34.800,313.517 34.440,313.200 34.000 C 312.883 33.560,312.303 33.200,311.912 33.200 C 311.520 33.200,311.200 33.050,311.200 32.868 C 311.200 32.685,310.705 32.280,310.100 31.968 C 309.495 31.655,308.682 31.114,308.293 30.764 C 307.905 30.414,307.095 29.874,306.493 29.564 C 305.892 29.254,304.654 28.505,303.742 27.900 C 302.830 27.295,301.972 26.800,301.834 26.800 C 301.697 26.800,300.871 26.350,300.000 25.800 C 299.129 25.250,298.142 24.800,297.808 24.800 C 297.474 24.800,297.200 24.620,297.200 24.400 C 297.200 24.180,296.855 24.000,296.433 24.000 C 296.012 24.000,295.607 23.865,295.533 23.700 C 295.366 23.324,293.236 22.025,292.300 21.729 C 291.915 21.607,291.600 21.348,291.600 21.153 C 291.600 20.959,291.240 20.800,290.800 20.800 C 290.360 20.800,290.000 20.620,290.000 20.400 C 290.000 20.180,289.640 20.000,289.200 20.000 C 288.760 20.000,288.400 19.820,288.400 19.600 C 288.400 19.380,288.040 19.200,287.600 19.200 C 287.160 19.200,286.800 19.020,286.800 18.800 C 286.800 18.580,286.451 18.400,286.024 18.400 C 285.597 18.400,285.136 18.220,285.000 18.000 C 284.864 17.780,284.403 17.600,283.976 17.600 C 283.549 17.600,283.200 17.420,283.200 17.200 C 283.200 16.980,282.840 16.800,282.400 16.800 C 281.960 16.800,281.600 16.620,281.600 16.400 C 281.600 16.180,281.251 16.000,280.824 16.000 C 280.397 16.000,279.936 15.820,279.800 15.600 C 279.664 15.380,279.203 15.200,278.776 15.200 C 278.349 15.200,278.000 15.020,278.000 14.800 C 278.000 14.580,277.550 14.400,277.000 14.400 C 276.450 14.400,276.000 14.220,276.000 14.000 C 276.000 13.780,275.674 13.600,275.275 13.600 C 274.876 13.600,273.805 13.240,272.894 12.800 C 271.984 12.360,270.960 12.000,270.619 12.000 C 270.279 12.000,270.000 11.820,270.000 11.600 C 270.000 11.380,269.561 11.200,269.024 11.200 C 268.487 11.200,267.936 11.020,267.800 10.800 C 267.664 10.580,267.143 10.400,266.643 10.400 C 266.143 10.400,265.607 10.274,265.453 10.120 C 264.987 9.653,260.676 8.412,259.500 8.406 C 258.895 8.403,258.400 8.220,258.400 8.000 C 258.400 7.780,257.871 7.600,257.224 7.600 C 256.577 7.600,255.936 7.420,255.800 7.200 C 255.664 6.980,254.933 6.800,254.176 6.800 C 253.419 6.800,252.800 6.620,252.800 6.400 C 252.800 6.180,252.271 6.000,251.624 6.000 C 250.977 6.000,250.336 5.820,250.200 5.600 C 250.064 5.380,249.254 5.200,248.400 5.200 C 247.546 5.200,246.736 5.020,246.600 4.800 C 246.464 4.580,245.643 4.400,244.776 4.400 C 243.909 4.400,243.200 4.220,243.200 4.000 C 243.200 3.780,242.491 3.600,241.624 3.600 C 240.757 3.600,239.936 3.420,239.800 3.200 C 239.664 2.980,238.674 2.800,237.600 2.800 C 236.526 2.800,235.536 2.620,235.400 2.400 C 235.264 2.180,234.173 2.000,232.976 2.000 C 231.779 2.000,230.800 1.820,230.800 1.600 C 230.800 1.372,229.611 1.200,228.033 1.200 C 226.241 1.200,225.210 1.031,225.107 0.721 C 224.948 0.245,188.920 -0.105,178.900 0.273 M398.800 223.553 C 398.800 224.596,399.416 224.977,399.492 223.980 C 399.523 223.560,399.381 223.112,399.175 222.984 C 398.969 222.857,398.800 223.113,398.800 223.553 M398.000 230.024 C 398.000 230.477,398.180 230.736,398.400 230.600 C 398.620 230.464,398.800 230.093,398.800 229.776 C 398.800 229.459,398.620 229.200,398.400 229.200 C 398.180 229.200,398.000 229.571,398.000 230.024 M397.467 233.867 C 397.320 234.013,397.200 234.493,397.200 234.933 C 397.200 235.915,397.565 235.618,397.790 234.454 C 397.964 233.551,397.899 233.434,397.467 233.867 M395.812 242.117 C 395.641 242.512,395.613 242.947,395.751 243.084 C 396.157 243.490,396.484 242.920,396.297 242.131 C 396.132 241.433,396.110 241.432,395.812 242.117 M394.000 249.624 C 394.000 250.077,394.180 250.336,394.400 250.200 C 394.620 250.064,394.800 249.693,394.800 249.376 C 394.800 249.059,394.620 248.800,394.400 248.800 C 394.180 248.800,394.000 249.171,394.000 249.624 M360.100 320.598 C 359.531 321.245,359.461 321.600,359.904 321.600 C 360.071 321.600,360.432 321.240,360.707 320.800 C 361.278 319.887,360.851 319.745,360.100 320.598 M334.460 348.642 C 334.162 348.978,333.999 349.332,334.095 349.429 C 334.192 349.526,334.598 349.244,334.998 348.802 C 335.397 348.361,335.561 348.007,335.362 348.015 C 335.163 348.024,334.757 348.305,334.460 348.642 " stroke="none" fill="#2b93fb" fill-rule="evenodd"></path><path id="path2" d="M266.930 104.690 C 264.048 108.161,261.354 111.390,260.945 111.866 C 260.535 112.343,259.930 113.066,259.600 113.472 C 256.152 117.725,255.231 118.804,253.948 120.100 L 252.463 121.600 180.230 121.600 L 107.998 121.600 108.099 200.100 L 108.200 278.600 186.176 278.701 C 248.292 278.781,264.216 278.700,264.470 278.301 C 264.645 278.025,264.791 263.823,264.794 246.739 L 264.800 215.678 269.235 210.340 C 271.674 207.404,274.350 204.192,275.181 203.201 C 276.012 202.210,278.107 199.690,279.837 197.600 C 281.567 195.510,283.082 193.710,283.204 193.600 C 283.326 193.490,284.437 192.197,285.672 190.726 C 286.907 189.255,288.026 188.160,288.159 188.292 C 288.292 188.425,288.400 214.153,288.400 245.467 L 288.400 302.400 186.767 302.400 C 119.510 302.400,85.178 302.535,85.267 302.798 C 85.340 303.017,107.090 324.932,133.600 351.498 L 181.800 399.800 202.480 399.800 C 218.491 399.800,223.273 399.687,223.660 399.300 C 223.935 399.025,224.349 398.803,224.580 398.806 C 224.811 398.809,224.730 398.987,224.400 399.200 C 223.887 399.531,223.902 399.589,224.500 399.594 C 224.885 399.597,225.200 399.420,225.200 399.200 C 225.200 398.974,226.333 398.800,227.800 398.800 C 229.230 398.800,230.400 398.655,230.400 398.478 C 230.400 398.301,231.158 398.112,232.085 398.057 C 233.011 398.002,233.956 397.812,234.185 397.635 C 234.413 397.457,235.770 397.277,237.200 397.233 C 238.630 397.190,239.971 396.984,240.180 396.777 C 240.389 396.570,241.154 396.400,241.880 396.400 C 242.606 396.400,243.200 396.220,243.200 396.000 C 243.200 395.780,244.111 395.600,245.224 395.600 C 246.471 395.600,247.152 395.447,247.000 395.200 C 246.849 394.956,247.463 394.800,248.576 394.800 C 249.579 394.800,250.400 394.620,250.400 394.400 C 250.400 394.180,250.835 394.000,251.367 394.000 C 251.898 394.000,252.424 393.775,252.535 393.500 C 252.680 393.140,252.746 393.133,252.768 393.476 C 252.792 393.829,253.072 393.811,253.850 393.408 C 254.427 393.108,255.147 392.958,255.450 393.074 C 255.752 393.191,256.000 393.086,256.000 392.843 C 256.000 392.599,256.630 392.400,257.400 392.400 C 258.170 392.400,258.800 392.233,258.800 392.029 C 258.800 391.825,259.792 391.534,261.005 391.382 C 262.218 391.230,263.309 390.948,263.429 390.753 C 263.549 390.559,263.999 390.400,264.429 390.400 C 264.859 390.400,265.523 390.246,265.905 390.059 C 268.064 388.999,269.523 388.399,270.497 388.171 C 271.101 388.030,271.488 387.742,271.357 387.531 C 271.227 387.319,271.363 387.180,271.660 387.221 C 272.997 387.404,274.427 387.167,274.200 386.800 C 274.064 386.580,274.313 386.400,274.753 386.400 C 275.193 386.400,275.664 386.220,275.800 386.000 C 275.936 385.780,276.587 385.600,277.247 385.600 C 277.945 385.600,278.344 385.433,278.200 385.200 C 278.058 384.970,278.430 384.797,279.076 384.794 C 279.949 384.789,280.066 384.701,279.600 384.400 C 279.145 384.106,279.314 384.011,280.300 384.006 C 281.015 384.003,281.600 383.820,281.600 383.600 C 281.600 383.380,281.960 383.200,282.400 383.200 C 282.840 383.200,283.200 383.020,283.200 382.800 C 283.200 382.580,283.740 382.400,284.400 382.400 C 285.060 382.400,285.600 382.220,285.600 382.000 C 285.600 381.780,285.960 381.600,286.400 381.600 C 286.840 381.600,287.200 381.420,287.200 381.200 C 287.200 380.980,287.605 380.787,288.100 380.772 C 288.959 380.745,288.963 380.728,288.200 380.400 C 287.437 380.072,287.441 380.055,288.300 380.028 C 288.795 380.013,289.200 379.820,289.200 379.600 C 289.200 379.380,289.391 379.200,289.624 379.200 C 289.857 379.200,289.916 379.425,289.755 379.700 C 289.594 379.975,289.823 379.885,290.264 379.499 C 290.704 379.114,291.185 378.919,291.332 379.066 C 291.480 379.213,291.600 379.123,291.600 378.867 C 291.600 378.610,291.960 378.400,292.400 378.400 C 292.840 378.400,293.200 378.220,293.200 378.000 C 293.200 377.780,293.571 377.600,294.024 377.600 C 294.477 377.600,294.736 377.420,294.600 377.200 C 294.373 376.832,294.922 376.621,295.734 376.764 C 295.918 376.796,296.164 376.458,296.281 376.011 C 296.398 375.565,296.832 375.178,297.247 375.150 C 298.335 375.078,298.543 375.024,299.100 374.670 C 299.375 374.496,299.600 374.466,299.600 374.605 C 299.600 374.744,300.074 374.485,300.654 374.029 C 301.234 373.573,301.954 373.200,302.254 373.200 C 302.554 373.200,302.800 372.947,302.800 372.637 C 302.800 372.281,303.079 372.148,303.561 372.274 C 304.068 372.406,304.403 372.222,304.561 371.722 C 304.693 371.308,305.202 370.940,305.694 370.903 C 306.186 370.866,306.651 370.648,306.727 370.418 C 306.804 370.188,307.078 370.000,307.337 370.000 C 307.596 370.000,308.032 369.640,308.307 369.200 C 308.582 368.760,309.093 368.400,309.443 368.400 C 309.793 368.400,310.586 367.858,311.205 367.195 C 311.957 366.390,312.398 366.158,312.533 366.495 C 312.645 366.773,312.765 366.550,312.800 366.000 C 312.835 365.450,312.956 365.232,313.070 365.516 C 313.225 365.902,313.446 365.846,313.939 365.296 C 314.302 364.891,315.276 364.245,316.101 363.860 C 316.927 363.476,318.044 362.720,318.583 362.181 C 319.122 361.641,319.887 361.197,320.282 361.194 C 320.892 361.189,320.910 361.129,320.400 360.800 C 319.903 360.479,319.938 360.411,320.604 360.406 C 321.046 360.403,321.632 360.040,321.907 359.600 C 322.182 359.160,322.675 358.800,323.003 358.800 C 323.332 358.800,323.600 358.609,323.600 358.376 C 323.600 358.143,323.757 358.050,323.949 358.168 C 324.140 358.287,324.725 357.890,325.249 357.286 C 325.772 356.683,326.698 355.934,327.308 355.623 C 328.102 355.217,328.272 354.966,327.908 354.734 C 327.543 354.503,327.603 354.411,328.124 354.406 C 328.522 354.403,328.736 354.220,328.600 354.000 C 328.464 353.780,328.642 353.600,328.995 353.600 C 329.348 353.600,330.086 353.150,330.636 352.600 C 331.186 352.050,331.781 351.600,331.957 351.600 C 332.490 351.600,334.000 350.140,334.000 349.625 C 334.000 349.016,334.998 348.000,335.596 348.000 C 336.100 348.000,341.600 342.479,341.600 341.974 C 341.600 341.798,341.960 341.540,342.400 341.400 C 342.840 341.260,343.200 340.858,343.200 340.506 C 343.200 340.155,343.308 339.975,343.440 340.107 C 343.740 340.407,346.400 337.785,346.400 337.190 C 346.400 336.949,346.553 336.847,346.740 336.963 C 346.927 337.078,347.332 336.684,347.640 336.086 C 348.478 334.460,349.089 333.891,349.336 334.504 C 349.447 334.777,349.554 334.550,349.575 334.000 C 349.605 333.203,349.691 333.122,350.000 333.600 C 350.329 334.109,350.389 334.090,350.394 333.476 C 350.398 333.032,350.578 332.863,350.862 333.038 C 351.117 333.196,351.216 333.150,351.083 332.935 C 350.951 332.721,351.238 332.108,351.721 331.573 C 352.205 331.038,352.852 330.111,353.160 329.514 C 353.468 328.916,353.873 328.522,354.060 328.637 C 354.247 328.753,354.400 328.567,354.400 328.224 C 354.400 327.881,354.597 327.645,354.837 327.700 C 355.078 327.755,355.483 327.448,355.737 327.017 C 355.992 326.586,356.425 325.988,356.700 325.688 C 356.975 325.388,357.200 324.976,357.200 324.771 C 357.200 324.567,357.425 324.445,357.700 324.500 C 357.975 324.555,358.155 324.375,358.100 324.100 C 358.045 323.825,358.136 323.600,358.302 323.600 C 358.469 323.600,358.861 323.022,359.174 322.315 C 359.486 321.608,360.610 320.139,361.671 319.050 C 362.732 317.961,363.600 316.869,363.600 316.623 C 363.600 316.378,363.960 315.917,364.400 315.600 C 364.840 315.283,365.200 314.603,365.200 314.088 C 365.200 313.574,365.335 313.235,365.500 313.334 C 365.665 313.434,366.032 313.265,366.316 312.958 C 366.695 312.548,366.705 312.400,366.355 312.400 C 366.092 312.400,366.262 312.067,366.732 311.659 C 367.201 311.252,367.469 310.802,367.326 310.659 C 367.183 310.517,367.367 310.400,367.733 310.400 C 368.106 310.400,368.400 310.086,368.400 309.688 C 368.400 309.297,368.760 308.717,369.200 308.400 C 369.640 308.083,370.000 307.593,370.000 307.312 C 370.000 307.030,370.135 306.799,370.300 306.797 C 370.665 306.793,371.600 304.851,371.600 304.097 C 371.600 303.798,371.780 303.664,372.000 303.800 C 372.220 303.936,372.400 303.666,372.400 303.200 C 372.400 302.734,372.580 302.464,372.800 302.600 C 373.020 302.736,373.200 302.591,373.200 302.278 C 373.200 301.964,373.554 301.258,373.987 300.708 C 374.419 300.158,374.890 298.979,375.032 298.089 C 375.223 296.898,375.517 296.407,376.146 296.235 C 376.816 296.050,376.881 295.923,376.447 295.644 C 376.011 295.363,376.075 295.230,376.747 295.017 C 377.216 294.868,377.600 294.486,377.600 294.168 C 377.600 293.634,378.332 292.068,378.800 291.600 C 379.390 291.010,380.000 289.487,380.000 288.605 C 380.000 288.052,380.180 287.600,380.400 287.600 C 380.620 287.600,380.800 287.358,380.800 287.062 C 380.800 286.766,381.160 286.198,381.600 285.800 C 382.040 285.402,382.400 284.654,382.400 284.138 C 382.400 283.622,382.580 283.200,382.800 283.200 C 383.020 283.200,383.200 282.855,383.200 282.433 C 383.200 282.012,383.378 281.607,383.597 281.533 C 383.815 281.460,384.034 280.905,384.084 280.300 C 384.134 279.695,384.272 279.200,384.391 279.200 C 384.510 279.200,384.844 278.821,385.133 278.358 C 385.422 277.895,385.466 277.636,385.230 277.782 C 384.993 277.928,384.800 277.857,384.800 277.624 C 384.800 277.391,384.980 277.200,385.200 277.200 C 385.420 277.200,385.600 276.930,385.600 276.600 C 385.600 276.270,385.780 276.000,386.000 276.000 C 386.220 276.000,386.400 275.655,386.400 275.233 C 386.400 274.812,386.584 274.405,386.809 274.330 C 387.033 274.256,387.242 273.528,387.273 272.713 C 387.303 271.899,387.480 271.326,387.664 271.440 C 387.991 271.642,388.170 270.749,388.021 269.660 C 387.980 269.363,388.139 269.238,388.373 269.383 C 388.623 269.538,388.800 269.305,388.800 268.824 C 388.800 268.371,388.941 268.000,389.113 268.000 C 389.285 268.000,389.466 267.515,389.515 266.922 C 389.564 266.330,389.747 265.745,389.921 265.622 C 390.096 265.500,390.266 264.966,390.299 264.436 C 390.333 263.906,390.560 263.348,390.804 263.197 C 391.049 263.046,391.259 262.167,391.272 261.243 C 391.284 260.318,391.543 259.314,391.847 259.010 C 392.151 258.706,392.400 257.904,392.400 257.229 C 392.400 256.553,392.553 256.000,392.739 256.000 C 392.926 256.000,393.094 255.433,393.114 254.739 C 393.134 254.046,393.386 253.328,393.675 253.145 C 394.075 252.892,394.081 252.811,393.700 252.806 C 393.425 252.803,393.200 252.519,393.200 252.176 C 393.200 251.833,393.380 251.664,393.600 251.800 C 393.842 251.949,394.000 251.404,394.000 250.424 C 394.000 249.531,394.180 248.800,394.400 248.800 C 394.620 248.800,394.800 248.339,394.800 247.776 C 394.800 247.213,394.943 246.841,395.117 246.949 C 395.291 247.056,395.478 246.035,395.531 244.678 C 395.585 243.321,395.802 242.038,396.014 241.826 C 396.226 241.614,396.400 240.846,396.400 240.120 C 396.400 239.394,396.580 238.800,396.800 238.800 C 397.022 238.800,397.200 237.741,397.200 236.424 C 397.200 235.117,397.380 233.936,397.600 233.800 C 397.820 233.664,398.000 233.059,398.000 232.456 C 398.000 231.853,398.225 231.118,398.500 230.821 C 398.900 230.390,398.900 230.339,398.500 230.565 C 398.170 230.751,398.000 230.566,398.000 230.024 C 398.000 229.571,398.180 229.200,398.400 229.200 C 398.620 229.200,398.800 228.300,398.800 227.200 C 398.800 226.100,398.950 225.200,399.133 225.200 C 399.317 225.200,399.467 224.938,399.467 224.618 C 399.467 224.297,399.317 224.128,399.133 224.241 C 398.950 224.355,398.800 224.066,398.800 223.600 C 398.800 223.134,398.980 222.864,399.200 223.000 C 399.430 223.142,399.605 222.768,399.612 222.124 C 399.619 221.506,399.723 218.210,399.845 214.800 L 400.065 208.600 358.168 166.737 C 335.125 143.713,316.075 124.958,315.836 125.060 C 315.596 125.162,313.737 127.351,311.705 129.923 C 309.673 132.495,307.538 135.140,306.961 135.800 C 306.383 136.460,305.437 137.630,304.858 138.400 C 304.278 139.170,303.713 139.890,303.601 140.000 C 303.431 140.167,300.208 144.158,298.000 146.935 C 297.670 147.350,297.213 147.894,296.985 148.145 C 296.647 148.516,292.667 153.476,290.677 156.006 C 289.735 157.203,286.607 161.004,286.402 161.200 C 286.287 161.310,284.046 164.100,281.423 167.400 C 278.800 170.700,276.547 173.490,276.417 173.600 C 276.286 173.710,275.559 174.610,274.800 175.600 C 274.041 176.590,273.313 177.490,273.182 177.600 C 273.051 177.710,271.523 179.600,269.786 181.800 C 268.049 184.000,265.362 187.334,263.814 189.210 C 262.266 191.085,260.426 193.335,259.724 194.210 C 249.100 207.451,246.212 211.032,246.022 211.200 C 245.897 211.310,245.322 212.030,244.743 212.800 C 244.164 213.570,243.355 214.590,242.945 215.066 C 241.809 216.387,241.303 217.007,236.930 222.435 C 234.699 225.204,232.632 227.724,232.337 228.035 C 231.808 228.592,227.555 233.464,225.600 235.752 C 225.050 236.396,224.240 237.302,223.800 237.765 C 223.360 238.229,222.010 239.776,220.800 241.204 C 219.590 242.632,218.420 243.993,218.200 244.230 C 217.980 244.466,216.900 245.709,215.800 246.991 C 214.700 248.272,213.620 249.519,213.400 249.761 C 213.180 250.003,211.831 251.551,210.403 253.201 C 208.975 254.850,207.535 256.470,207.203 256.800 C 206.871 257.130,205.532 258.660,204.228 260.200 C 201.748 263.127,200.854 264.000,200.339 264.000 C 200.080 264.000,123.346 187.430,119.814 183.647 L 118.628 182.377 130.212 170.788 C 136.582 164.415,142.029 159.200,142.314 159.200 C 142.907 159.200,147.516 163.638,176.382 192.000 C 190.773 206.140,197.706 212.800,198.033 212.800 C 198.448 212.800,198.224 213.053,204.412 205.600 C 206.878 202.630,209.279 199.748,209.748 199.196 C 210.216 198.644,211.408 197.204,212.395 195.996 C 213.381 194.788,214.286 193.710,214.404 193.600 C 214.523 193.490,216.228 191.420,218.194 189.000 C 220.159 186.580,221.867 184.510,221.989 184.400 C 222.111 184.290,223.015 183.210,223.998 182.000 C 224.981 180.790,226.069 179.530,226.415 179.200 C 226.761 178.870,227.305 178.221,227.622 177.757 C 227.940 177.294,228.941 176.034,229.846 174.957 C 230.752 173.881,233.428 170.660,235.792 167.800 C 238.157 164.940,240.782 161.790,241.624 160.800 C 244.336 157.614,249.721 151.120,253.398 146.600 C 255.367 144.180,257.263 141.930,257.611 141.600 C 257.960 141.270,258.505 140.621,258.822 140.157 C 259.140 139.694,260.146 138.434,261.057 137.357 C 267.195 130.108,283.600 110.217,283.600 110.024 C 283.600 109.895,281.028 107.223,277.885 104.085 L 272.170 98.380 266.930 104.690 " stroke="none" fill="#1c74bc" fill-rule="evenodd"></path><path id="path3" d="M84.243 98.633 C 83.877 99.587,83.963 300.923,84.330 301.501 C 84.584 301.900,105.267 301.981,186.424 301.901 L 288.200 301.800 288.310 246.000 C 288.370 215.310,288.320 189.790,288.199 189.290 L 287.980 188.379 287.024 189.490 C 286.498 190.100,286.138 190.670,286.224 190.757 C 286.310 190.843,286.739 190.483,287.177 189.957 C 287.973 189.000,287.973 189.023,287.987 245.301 L 288.000 301.602 186.300 301.501 L 84.600 301.400 84.600 200.000 L 84.600 98.600 177.700 98.499 C 228.905 98.444,270.800 98.515,270.800 98.658 C 270.800 98.801,270.158 99.701,269.373 100.659 C 268.588 101.616,268.068 102.400,268.216 102.400 C 268.522 102.400,269.845 100.814,270.939 99.135 L 271.679 98.000 178.082 98.000 C 93.103 98.000,84.463 98.058,84.243 98.633 M266.942 103.700 C 264.770 106.151,262.256 109.319,262.687 109.061 C 263.208 108.748,268.157 102.800,267.895 102.800 C 267.810 102.800,267.381 103.205,266.942 103.700 M283.647 110.584 C 280.541 114.426,278.000 117.676,278.000 117.808 C 278.000 118.040,281.828 113.459,286.926 107.126 C 288.287 105.436,289.534 104.041,289.697 104.026 C 289.922 104.006,300.875 112.638,309.601 119.713 C 309.932 119.981,311.012 120.825,312.001 121.589 C 314.384 123.428,315.237 124.407,314.933 124.952 C 314.764 125.254,314.846 125.249,315.186 124.935 C 315.890 124.286,315.713 124.090,311.102 120.400 C 308.846 118.594,306.251 116.501,305.336 115.748 C 304.421 114.994,302.081 113.115,300.136 111.570 C 298.191 110.026,296.329 108.546,295.999 108.281 C 295.668 108.016,294.588 107.172,293.599 106.404 C 292.609 105.636,291.451 104.691,291.025 104.304 C 289.741 103.139,289.502 103.342,283.647 110.584 M258.481 113.853 C 257.536 115.034,256.844 116.000,256.944 116.000 C 257.231 116.000,260.519 111.983,260.351 111.837 C 260.268 111.766,259.426 112.673,258.481 113.853 M254.456 118.647 L 252.712 120.798 180.056 120.899 L 107.400 121.000 107.400 200.000 L 107.400 279.000 186.200 279.000 L 265.000 279.000 265.200 247.569 L 265.400 216.137 266.478 214.769 C 267.070 214.016,268.028 212.815,268.607 212.100 C 269.185 211.385,269.569 210.800,269.459 210.800 C 269.350 210.800,268.257 212.009,267.030 213.487 L 264.800 216.174 264.800 247.487 L 264.800 278.800 186.200 278.800 L 107.600 278.800 107.600 200.000 L 107.600 121.200 180.169 121.200 L 252.738 121.200 254.626 118.990 C 255.664 117.775,256.443 116.716,256.357 116.638 C 256.271 116.560,255.415 117.464,254.456 118.647 M275.700 120.230 C 274.765 121.398,274.000 122.470,274.000 122.613 C 274.000 122.756,274.829 121.856,275.842 120.612 C 276.855 119.368,277.620 118.296,277.542 118.229 C 277.464 118.162,276.635 119.062,275.700 120.230 M272.355 124.300 C 271.010 125.787,270.260 126.800,270.503 126.800 C 270.613 126.800,271.367 125.990,272.179 125.000 C 273.806 123.014,273.917 122.572,272.355 124.300 M313.798 126.159 C 313.579 126.466,312.983 127.276,312.473 127.959 C 311.071 129.835,311.702 129.446,313.379 127.400 C 314.190 126.410,314.706 125.600,314.525 125.600 C 314.344 125.600,314.017 125.851,313.798 126.159 M268.559 128.900 C 266.854 130.867,266.222 131.725,266.671 131.463 C 266.930 131.312,267.710 130.471,268.404 129.594 C 269.751 127.894,269.862 127.397,268.559 128.900 M307.508 134.058 C 305.588 136.446,304.148 138.389,304.308 138.376 C 304.674 138.345,311.354 130.011,311.150 129.841 C 311.067 129.773,309.429 131.670,307.508 134.058 M264.060 134.249 C 263.103 135.461,262.383 136.503,262.460 136.565 C 262.537 136.627,263.461 135.625,264.513 134.339 C 265.565 133.052,266.285 132.010,266.113 132.022 C 265.941 132.035,265.017 133.036,264.060 134.249 M259.987 139.216 C 259.058 140.325,258.366 141.291,258.449 141.363 C 258.532 141.434,259.374 140.527,260.319 139.347 C 262.495 136.629,262.237 136.528,259.987 139.216 M302.260 140.493 C 301.486 141.425,300.933 142.266,301.031 142.364 C 301.204 142.538,301.570 142.129,303.233 139.900 C 304.510 138.190,303.828 138.606,302.260 140.493 M255.818 144.200 C 254.784 145.410,254.087 146.390,254.269 146.378 C 254.603 146.355,258.183 142.000,257.867 142.000 C 257.774 142.000,256.851 142.990,255.818 144.200 M298.962 144.700 C 298.118 145.745,297.331 146.690,297.214 146.800 C 297.096 146.910,296.755 147.360,296.456 147.800 C 295.718 148.885,299.038 145.283,300.049 143.900 C 301.368 142.099,300.616 142.651,298.962 144.700 M248.103 153.500 C 245.042 157.185,241.601 161.325,240.455 162.700 C 239.308 164.075,238.512 165.194,238.685 165.188 C 238.858 165.181,239.573 164.416,240.273 163.488 C 240.974 162.559,241.874 161.440,242.273 161.000 C 242.673 160.560,243.808 159.210,244.795 158.000 C 245.781 156.790,246.689 155.710,246.811 155.600 C 247.425 155.046,254.036 146.800,253.866 146.800 C 253.757 146.800,251.164 149.815,248.103 153.500 M291.548 153.713 C 291.189 154.201,290.138 155.545,289.214 156.700 C 288.289 157.855,287.624 158.800,287.737 158.800 C 287.850 158.800,289.036 157.450,290.374 155.800 C 291.712 154.150,292.670 152.806,292.503 152.813 C 292.336 152.819,291.906 153.224,291.548 153.713 M130.705 170.706 L 119.000 182.394 159.619 223.016 C 187.874 251.273,200.415 263.559,200.819 263.379 C 201.514 263.070,206.985 256.787,206.522 256.830 C 206.345 256.846,204.969 258.286,203.464 260.030 C 201.960 261.773,200.609 263.200,200.464 263.200 C 200.318 263.200,182.019 245.019,159.799 222.797 L 119.400 182.393 130.870 170.941 L 142.339 159.489 153.270 170.245 C 159.281 176.160,166.720 183.424,169.800 186.387 C 172.880 189.349,171.890 188.273,167.600 183.995 C 163.310 179.718,155.887 172.347,151.105 167.618 L 142.411 159.018 130.705 170.706 M283.900 163.300 C 275.037 174.163,268.826 181.997,269.099 181.970 C 269.264 181.954,270.126 181.009,271.014 179.870 C 271.902 178.732,276.007 173.615,280.136 168.500 C 284.265 163.385,287.554 159.200,287.444 159.200 C 287.335 159.200,285.740 161.045,283.900 163.300 M232.503 172.300 C 224.903 181.450,222.481 184.460,224.064 182.789 C 224.799 182.012,226.141 180.482,227.046 179.389 C 232.991 172.208,237.017 167.372,237.194 167.200 C 237.753 166.657,238.472 165.600,238.283 165.600 C 238.165 165.600,235.564 168.615,232.503 172.300 M267.759 183.300 C 265.872 185.477,265.498 185.999,265.838 185.984 C 266.037 185.976,266.791 185.166,267.513 184.184 C 268.915 182.278,269.043 181.819,267.759 183.300 M221.742 185.300 C 219.686 187.621,217.044 190.926,217.430 190.696 C 217.917 190.406,222.941 184.400,222.697 184.400 C 222.611 184.400,222.181 184.805,221.742 185.300 M260.487 192.216 C 258.790 194.523,259.083 194.514,260.979 192.200 C 261.790 191.210,262.307 190.407,262.127 190.416 C 261.947 190.424,261.209 191.234,260.487 192.216 M214.931 193.500 C 213.869 194.765,212.908 195.890,212.795 196.000 C 212.001 196.773,209.200 200.370,209.200 200.617 C 209.200 200.900,209.683 200.395,211.200 198.529 C 211.530 198.123,213.020 196.308,214.512 194.495 C 216.003 192.683,217.142 191.200,217.042 191.200 C 216.943 191.200,215.993 192.235,214.931 193.500 M283.731 193.489 C 280.501 197.317,280.201 197.675,277.048 201.462 C 275.372 203.476,274.000 205.237,274.000 205.376 C 274.000 205.514,275.391 203.956,277.091 201.914 C 278.791 199.871,280.286 198.110,280.414 198.000 C 280.948 197.539,286.010 191.200,285.844 191.200 C 285.744 191.200,284.793 192.230,283.731 193.489 M253.000 201.440 C 249.920 205.286,247.056 208.920,246.635 209.516 L 245.870 210.600 246.673 209.800 C 248.086 208.393,259.214 194.399,258.901 194.424 C 258.736 194.437,256.080 197.594,253.000 201.440 M181.673 198.100 C 183.015 199.365,183.781 199.755,182.830 198.688 C 182.297 198.090,181.699 197.600,181.502 197.600 C 181.304 197.600,181.381 197.825,181.673 198.100 M190.596 206.710 C 198.185 214.405,198.046 214.332,200.146 211.700 L 201.662 209.800 200.076 211.500 C 197.926 213.806,198.342 214.027,190.648 206.510 L 183.800 199.821 190.596 206.710 M206.142 204.100 C 204.451 206.008,201.563 209.727,202.803 208.400 C 205.374 205.648,207.405 203.200,207.119 203.200 C 207.020 203.200,206.581 203.605,206.142 204.100 M271.755 207.881 C 270.907 208.916,270.422 209.634,270.677 209.476 C 271.221 209.140,273.755 206.000,273.482 206.000 C 273.380 206.000,272.603 206.847,271.755 207.881 M243.309 213.543 C 242.159 215.005,240.670 216.830,240.000 217.600 C 237.776 220.157,235.017 223.760,235.523 223.447 C 236.161 223.054,245.720 211.184,245.537 211.014 C 245.462 210.944,244.459 212.082,243.309 213.543 M232.949 226.284 C 231.877 227.540,231.209 228.439,231.464 228.283 C 232.023 227.939,235.354 224.000,235.086 224.000 C 234.982 224.000,234.020 225.028,232.949 226.284 M230.200 229.329 C 229.980 229.603,228.810 230.984,227.600 232.398 C 226.390 233.812,225.605 234.843,225.855 234.689 C 226.612 234.222,231.308 228.799,230.941 228.815 C 230.754 228.824,230.420 229.055,230.200 229.329 M222.278 238.469 C 220.781 240.191,219.701 241.586,219.878 241.570 C 220.259 241.534,225.358 235.608,225.145 235.448 C 225.065 235.388,223.775 236.748,222.278 238.469 M214.223 247.765 C 211.461 250.936,209.200 253.648,209.200 253.792 C 209.200 253.936,210.574 252.467,212.252 250.527 C 215.078 247.262,216.919 245.161,218.936 242.900 C 219.378 242.405,219.629 242.000,219.493 242.000 C 219.358 242.000,216.986 244.594,214.223 247.765 M207.634 255.353 L 206.669 256.600 207.813 255.512 C 208.443 254.914,208.877 254.353,208.779 254.265 C 208.680 254.177,208.165 254.667,207.634 255.353 " stroke="none" fill="#9cc4e4" fill-rule="evenodd"></path><path id="path4" d="M84.268 97.866 C 84.120 98.013,84.003 98.328,84.006 98.567 C 84.010 98.823,84.142 98.796,84.330 98.499 C 84.584 98.100,103.618 98.019,178.177 98.099 L 271.706 98.200 270.235 100.200 L 268.765 102.200 270.394 100.435 C 271.290 99.465,271.958 98.475,271.878 98.235 C 271.717 97.751,84.751 97.382,84.268 97.866 M267.409 103.513 C 266.974 104.111,265.211 106.265,263.492 108.300 C 261.773 110.335,260.509 111.990,260.683 111.977 C 260.857 111.965,261.900 110.847,263.000 109.494 C 264.100 108.141,265.871 105.991,266.935 104.717 C 267.999 103.443,268.719 102.406,268.535 102.413 C 268.351 102.419,267.844 102.914,267.409 103.513 M282.555 111.481 C 281.707 112.516,281.222 113.234,281.477 113.076 C 282.021 112.740,284.555 109.600,284.282 109.600 C 284.180 109.600,283.403 110.447,282.555 111.481 M279.968 114.700 C 277.486 117.480,277.085 117.999,277.430 117.978 C 277.634 117.965,278.574 116.975,279.519 115.778 C 281.351 113.456,281.590 112.882,279.968 114.700 M257.568 115.500 C 255.086 118.280,254.685 118.799,255.030 118.778 C 255.234 118.765,256.174 117.775,257.119 116.578 C 258.951 114.256,259.190 113.682,257.568 115.500 M269.770 126.900 C 265.890 131.575,261.970 136.281,261.058 137.357 C 259.149 139.611,258.277 140.800,258.535 140.800 C 258.634 140.800,260.219 138.973,262.057 136.740 C 263.896 134.507,265.580 132.478,265.800 132.231 C 266.309 131.658,269.605 127.645,270.399 126.633 C 270.730 126.211,271.638 125.131,272.417 124.233 C 275.071 121.176,277.275 118.400,277.049 118.400 C 276.925 118.400,273.649 122.225,269.770 126.900 M107.600 200.000 C 107.600 243.340,107.735 278.800,107.900 278.800 C 108.065 278.800,108.154 243.430,108.098 200.201 L 107.996 121.602 180.298 121.500 L 252.600 121.398 180.100 121.299 L 107.600 121.200 107.600 200.000 M311.069 130.208 C 308.494 133.394,306.526 135.992,306.694 135.982 C 306.862 135.972,308.689 133.820,310.753 131.200 C 312.818 128.580,314.861 126.056,315.294 125.592 C 315.726 125.127,316.006 124.673,315.915 124.582 C 315.824 124.491,313.643 127.022,311.069 130.208 M303.693 139.200 C 303.418 139.640,303.331 140.000,303.500 140.000 C 303.669 140.000,304.032 139.640,304.307 139.200 C 304.582 138.760,304.669 138.400,304.500 138.400 C 304.331 138.400,303.968 138.760,303.693 139.200 M301.966 141.510 C 300.353 143.364,299.776 144.168,300.271 143.871 C 300.792 143.559,303.366 140.400,303.100 140.400 C 303.008 140.400,302.497 140.900,301.966 141.510 M257.397 141.715 C 253.824 146.012,249.994 150.800,250.129 150.800 C 250.225 150.800,252.125 148.640,254.351 146.000 C 256.577 143.360,258.264 141.207,258.099 141.215 C 257.935 141.224,257.619 141.449,257.397 141.715 M298.800 145.400 C 298.283 145.950,298.027 146.394,298.230 146.387 C 298.572 146.376,300.221 144.400,299.888 144.400 C 299.806 144.400,299.317 144.850,298.800 145.400 M296.110 148.700 C 290.228 155.842,286.013 161.198,286.283 161.185 C 286.457 161.177,287.050 160.579,287.600 159.855 C 288.150 159.132,289.175 157.834,289.877 156.970 C 290.580 156.107,292.370 153.870,293.856 152.000 C 295.341 150.130,296.656 148.510,296.778 148.400 C 297.297 147.932,298.081 146.800,297.886 146.800 C 297.770 146.800,296.970 147.655,296.110 148.700 M248.768 152.300 C 246.630 154.695,245.821 155.717,246.264 155.463 C 246.519 155.317,247.481 154.298,248.401 153.199 C 250.168 151.088,250.437 150.430,248.768 152.300 M244.755 157.100 C 243.410 158.587,242.660 159.600,242.903 159.600 C 243.013 159.600,243.767 158.790,244.579 157.800 C 246.206 155.814,246.317 155.372,244.755 157.100 M130.212 170.788 L 118.628 182.377 119.814 183.647 C 123.346 187.430,200.080 264.000,200.339 264.000 C 200.863 264.000,201.767 263.106,204.182 260.200 C 206.331 257.615,205.363 258.507,202.121 262.100 C 201.377 262.925,200.640 263.600,200.483 263.600 C 200.327 263.600,181.929 245.329,159.599 222.997 L 119.000 182.394 130.614 170.797 C 137.002 164.419,142.131 159.200,142.012 159.200 C 141.892 159.200,136.582 164.415,130.212 170.788 M238.934 163.922 C 237.578 165.615,235.091 168.665,233.408 170.700 C 231.725 172.735,230.441 174.400,230.554 174.400 C 230.668 174.400,232.956 171.745,235.639 168.500 C 238.322 165.255,240.882 162.195,241.328 161.700 C 241.774 161.205,241.973 160.810,241.770 160.822 C 241.566 160.834,240.290 162.229,238.934 163.922 M280.853 167.600 C 278.181 170.900,276.131 173.591,276.297 173.581 C 276.464 173.570,278.040 171.735,279.800 169.503 C 281.560 167.271,283.690 164.580,284.534 163.522 C 285.378 162.465,285.988 161.600,285.889 161.600 C 285.791 161.600,283.524 164.300,280.853 167.600 M161.772 178.056 C 170.368 186.557,177.464 193.453,177.543 193.380 C 177.622 193.307,176.362 191.956,174.743 190.378 C 173.124 188.800,168.290 184.061,164.000 179.847 C 159.710 175.633,153.938 170.028,151.172 167.392 C 148.407 164.757,153.177 169.555,161.772 178.056 M274.221 175.800 C 273.410 176.790,272.893 177.593,273.073 177.584 C 273.399 177.569,276.174 174.000,275.861 174.000 C 275.770 174.000,275.033 174.810,274.221 175.800 M229.398 175.359 C 229.179 175.666,228.583 176.476,228.073 177.159 C 226.671 179.035,227.302 178.646,228.979 176.600 C 229.790 175.610,230.306 174.800,230.125 174.800 C 229.944 174.800,229.617 175.051,229.398 175.359 M271.759 178.900 C 270.007 180.921,269.487 181.600,269.690 181.600 C 269.807 181.600,270.567 180.790,271.379 179.800 C 272.881 177.966,273.179 177.263,271.759 178.900 M224.527 181.312 C 223.826 182.241,222.923 183.360,222.519 183.800 C 220.908 185.554,214.750 193.200,214.948 193.200 C 215.065 193.200,217.356 190.545,220.039 187.300 C 222.722 184.055,225.282 180.995,225.728 180.500 C 226.174 180.005,226.373 179.606,226.170 179.612 C 225.966 179.619,225.227 180.384,224.527 181.312 M268.100 183.327 C 267.606 184.054,266.881 184.997,266.490 185.424 C 265.078 186.966,259.200 194.357,259.200 194.591 C 259.200 194.723,261.299 192.259,263.865 189.115 C 266.430 185.972,268.798 183.085,269.126 182.700 C 269.455 182.315,269.561 182.001,269.362 182.003 C 269.163 182.004,268.595 182.600,268.100 183.327 M285.349 191.084 C 284.277 192.340,283.609 193.239,283.864 193.083 C 284.423 192.739,287.754 188.800,287.486 188.800 C 287.382 188.800,286.420 189.828,285.349 191.084 M213.270 194.822 C 212.758 195.470,212.488 195.990,212.670 195.978 C 212.851 195.966,213.419 195.426,213.930 194.778 C 214.442 194.130,214.712 193.610,214.530 193.622 C 214.349 193.634,213.781 194.174,213.270 194.822 M282.070 194.822 C 281.558 195.470,281.288 195.990,281.470 195.978 C 281.651 195.966,282.219 195.426,282.730 194.778 C 283.242 194.130,283.512 193.610,283.330 193.622 C 283.149 193.634,282.581 194.174,282.070 194.822 M252.079 203.200 C 248.532 207.600,245.758 211.190,245.915 211.179 C 246.332 211.147,259.090 195.200,258.698 195.200 C 258.605 195.200,255.627 198.800,252.079 203.200 M180.720 196.434 C 181.664 197.713,196.455 212.205,197.404 212.781 C 198.220 213.276,198.470 213.286,198.892 212.843 C 199.309 212.406,199.257 212.352,198.600 212.543 C 197.681 212.810,196.500 211.776,186.626 202.067 C 183.121 198.620,180.463 196.085,180.720 196.434 M279.949 197.500 C 278.077 199.557,275.398 202.964,275.887 202.666 C 276.155 202.503,277.472 201.026,278.813 199.384 C 281.248 196.404,281.841 195.420,279.949 197.500 M209.408 199.513 C 208.774 200.382,202.491 207.990,199.672 211.300 C 199.344 211.685,199.185 212.000,199.318 212.000 C 199.451 212.000,201.756 209.345,204.439 206.100 C 207.122 202.855,209.682 199.795,210.128 199.300 C 210.574 198.805,210.773 198.406,210.570 198.413 C 210.366 198.419,209.843 198.914,209.408 199.513 M270.400 208.844 C 267.870 211.920,265.541 214.834,265.225 215.319 C 264.447 216.510,265.039 215.888,267.621 212.800 C 268.817 211.370,269.890 210.110,270.005 210.000 C 270.979 209.072,275.594 203.206,275.335 203.225 C 275.151 203.238,272.930 205.767,270.400 208.844 M243.821 213.400 C 243.010 214.390,242.474 215.200,242.629 215.200 C 242.911 215.200,243.279 214.783,244.833 212.700 C 246.149 210.937,245.434 211.432,243.821 213.400 M233.473 226.100 C 231.398 228.575,228.163 232.310,226.285 234.400 C 224.407 236.490,222.943 238.274,223.033 238.364 C 223.122 238.454,223.569 238.094,224.026 237.564 C 228.118 232.816,231.790 228.608,232.023 228.400 C 232.658 227.833,237.641 221.600,237.459 221.600 C 237.342 221.600,235.549 223.625,233.473 226.100 M220.273 241.294 C 219.054 242.666,218.133 243.866,218.228 243.961 C 218.322 244.056,218.453 244.058,218.517 243.967 C 218.582 243.875,219.589 242.675,220.757 241.300 C 223.506 238.061,223.152 238.057,220.273 241.294 M214.299 248.123 C 212.593 250.145,210.214 252.880,209.011 254.200 C 207.809 255.520,206.819 256.748,206.813 256.929 C 206.796 257.352,208.110 255.913,214.000 249.053 C 214.550 248.413,215.180 247.679,215.400 247.423 C 215.620 247.167,216.329 246.382,216.975 245.679 C 217.621 244.975,217.981 244.410,217.775 244.423 C 217.569 244.435,216.004 246.100,214.299 248.123 M84.103 301.600 C 84.281 302.254,288.400 302.754,288.400 302.101 C 288.400 301.935,242.556 301.846,186.525 301.902 C 105.220 301.983,84.577 301.902,84.294 301.502 C 84.030 301.129,83.981 301.154,84.103 301.600 " stroke="none" fill="#6fa8d8" fill-rule="evenodd"></path></g></svg>